<svg width="441" height="85" viewBox="0 0 441 85" fill="none" xmlns="http://www.w3.org/2000/svg">
<circle cx="47" cy="46" r="28.5" stroke="url(#paint0_linear_9_2)" stroke-width="3"/>
<mask id="mask0_9_2" style="mask-type:alpha" maskUnits="userSpaceOnUse" x="24" y="35" width="46" height="22">
<path d="M26 43V50" stroke="#1E1E1E" stroke-width="3" stroke-linecap="round"/>
<path d="M32 43V50" stroke="#1E1E1E" stroke-width="3" stroke-linecap="round"/>
<path d="M38 40V52" stroke="#1E1E1E" stroke-width="3" stroke-linecap="round"/>
<path d="M44 37V55" stroke="#1E1E1E" stroke-width="3" stroke-linecap="round"/>
<path d="M56 40V52" stroke="#1E1E1E" stroke-width="3" stroke-linecap="round"/>
<path d="M50 37V55" stroke="#1E1E1E" stroke-width="3" stroke-linecap="round"/>
<path d="M62 42V50" stroke="#1E1E1E" stroke-width="3" stroke-linecap="round"/>
<path d="M68 42V50" stroke="#1E1E1E" stroke-width="3" stroke-linecap="round"/>
</mask>
<g mask="url(#mask0_9_2)">
<rect x="21" y="27" width="51" height="32" fill="url(#paint1_linear_9_2)"/>
</g>
<path d="M88.152 50.168C87.048 50.168 86.056 49.976 85.176 49.592C84.312 49.192 83.632 48.648 83.136 47.96C82.64 47.256 82.384 46.448 82.368 45.536H84.696C84.776 46.32 85.096 46.984 85.656 47.528C86.232 48.056 87.064 48.32 88.152 48.32C89.192 48.32 90.008 48.064 90.6 47.552C91.208 47.024 91.512 46.352 91.512 45.536C91.512 44.896 91.336 44.376 90.984 43.976C90.632 43.576 90.192 43.272 89.664 43.064C89.136 42.856 88.424 42.632 87.528 42.392C86.424 42.104 85.536 41.816 84.864 41.528C84.208 41.24 83.64 40.792 83.16 40.184C82.696 39.56 82.464 38.728 82.464 37.688C82.464 36.776 82.696 35.968 83.16 35.264C83.624 34.56 84.272 34.016 85.104 33.632C85.952 33.248 86.92 33.056 88.008 33.056C89.576 33.056 90.856 33.448 91.848 34.232C92.856 35.016 93.424 36.056 93.552 37.352H91.152C91.072 36.712 90.736 36.152 90.144 35.672C89.552 35.176 88.768 34.928 87.792 34.928C86.88 34.928 86.136 35.168 85.56 35.648C84.984 36.112 84.696 36.768 84.696 37.616C84.696 38.224 84.864 38.72 85.2 39.104C85.552 39.488 85.976 39.784 86.472 39.992C86.984 40.184 87.696 40.408 88.608 40.664C89.712 40.968 90.6 41.272 91.272 41.576C91.944 41.864 92.52 42.32 93 42.944C93.48 43.552 93.72 44.384 93.72 45.44C93.72 46.256 93.504 47.024 93.072 47.744C92.64 48.464 92 49.048 91.152 49.496C90.304 49.944 89.304 50.168 88.152 50.168ZM102.67 50.216C101.438 50.216 100.318 49.936 99.3099 49.376C98.3179 48.816 97.5339 48.024 96.9579 47C96.3979 45.96 96.1179 44.76 96.1179 43.4C96.1179 42.056 96.4059 40.872 96.9819 39.848C97.5739 38.808 98.3739 38.016 99.3819 37.472C100.39 36.912 101.518 36.632 102.766 36.632C104.014 36.632 105.142 36.912 106.15 37.472C107.158 38.016 107.95 38.8 108.526 39.824C109.118 40.848 109.414 42.04 109.414 43.4C109.414 44.76 109.11 45.96 108.502 47C107.91 48.024 107.102 48.816 106.078 49.376C105.054 49.936 103.918 50.216 102.67 50.216ZM102.67 48.296C103.454 48.296 104.19 48.112 104.878 47.744C105.566 47.376 106.118 46.824 106.534 46.088C106.966 45.352 107.182 44.456 107.182 43.4C107.182 42.344 106.974 41.448 106.558 40.712C106.142 39.976 105.598 39.432 104.926 39.08C104.254 38.712 103.526 38.528 102.742 38.528C101.942 38.528 101.206 38.712 100.534 39.08C99.8779 39.432 99.3499 39.976 98.9499 40.712C98.5499 41.448 98.3499 42.344 98.3499 43.4C98.3499 44.472 98.5419 45.376 98.9259 46.112C99.3259 46.848 99.8539 47.4 100.51 47.768C101.166 48.12 101.886 48.296 102.67 48.296ZM123.95 36.848V50H121.766V48.056C121.35 48.728 120.766 49.256 120.014 49.64C119.278 50.008 118.462 50.192 117.566 50.192C116.542 50.192 115.622 49.984 114.806 49.568C113.99 49.136 113.342 48.496 112.862 47.648C112.398 46.8 112.166 45.768 112.166 44.552V36.848H114.326V44.264C114.326 45.56 114.654 46.56 115.31 47.264C115.966 47.952 116.862 48.296 117.998 48.296C119.166 48.296 120.086 47.936 120.758 47.216C121.43 46.496 121.766 45.448 121.766 44.072V36.848H123.95ZM134.045 36.608C135.645 36.608 136.941 37.096 137.933 38.072C138.925 39.032 139.421 40.424 139.421 42.248V50H137.261V42.56C137.261 41.248 136.933 40.248 136.277 39.56C135.621 38.856 134.725 38.504 133.589 38.504C132.437 38.504 131.517 38.864 130.829 39.584C130.157 40.304 129.821 41.352 129.821 42.728V50H127.637V36.848H129.821V38.72C130.253 38.048 130.837 37.528 131.573 37.16C132.325 36.792 133.149 36.608 134.045 36.608ZM142.173 43.376C142.173 42.032 142.445 40.856 142.989 39.848C143.533 38.824 144.277 38.032 145.221 37.472C146.181 36.912 147.253 36.632 148.437 36.632C149.461 36.632 150.413 36.872 151.293 37.352C152.173 37.816 152.845 38.432 153.309 39.2V32.24H155.517V50H153.309V47.528C152.877 48.312 152.237 48.96 151.389 49.472C150.541 49.968 149.549 50.216 148.413 50.216C147.245 50.216 146.181 49.928 145.221 49.352C144.277 48.776 143.533 47.968 142.989 46.928C142.445 45.888 142.173 44.704 142.173 43.376ZM153.309 43.4C153.309 42.408 153.109 41.544 152.709 40.808C152.309 40.072 151.765 39.512 151.077 39.128C150.405 38.728 149.661 38.528 148.845 38.528C148.029 38.528 147.285 38.72 146.613 39.104C145.941 39.488 145.405 40.048 145.005 40.784C144.605 41.52 144.405 42.384 144.405 43.376C144.405 44.384 144.605 45.264 145.005 46.016C145.405 46.752 145.941 47.32 146.613 47.72C147.285 48.104 148.029 48.296 148.845 48.296C149.661 48.296 150.405 48.104 151.077 47.72C151.765 47.32 152.309 46.752 152.709 46.016C153.109 45.264 153.309 44.392 153.309 43.4ZM176.727 36.848L172.623 50H170.367L167.199 39.56L164.031 50H161.775L157.647 36.848H159.879L162.903 47.888L166.167 36.848H168.399L171.591 47.912L174.567 36.848H176.727ZM178.079 43.376C178.079 42.032 178.351 40.856 178.895 39.848C179.439 38.824 180.183 38.032 181.127 37.472C182.087 36.912 183.151 36.632 184.319 36.632C185.471 36.632 186.471 36.88 187.319 37.376C188.167 37.872 188.799 38.496 189.215 39.248V36.848H191.423V50H189.215V47.552C188.783 48.32 188.135 48.96 187.271 49.472C186.423 49.968 185.431 50.216 184.295 50.216C183.127 50.216 182.071 49.928 181.127 49.352C180.183 48.776 179.439 47.968 178.895 46.928C178.351 45.888 178.079 44.704 178.079 43.376ZM189.215 43.4C189.215 42.408 189.015 41.544 188.615 40.808C188.215 40.072 187.671 39.512 186.983 39.128C186.311 38.728 185.567 38.528 184.751 38.528C183.935 38.528 183.191 38.72 182.519 39.104C181.847 39.488 181.311 40.048 180.911 40.784C180.511 41.52 180.311 42.384 180.311 43.376C180.311 44.384 180.511 45.264 180.911 46.016C181.311 46.752 181.847 47.32 182.519 47.72C183.191 48.104 183.935 48.296 184.751 48.296C185.567 48.296 186.311 48.104 186.983 47.72C187.671 47.32 188.215 46.752 188.615 46.016C189.015 45.264 189.215 44.392 189.215 43.4ZM200.01 47.984L204.09 36.848H206.418L201.258 50H198.714L193.554 36.848H195.906L200.01 47.984ZM220.567 42.92C220.567 43.336 220.543 43.776 220.495 44.24H209.983C210.063 45.536 210.503 46.552 211.303 47.288C212.119 48.008 213.103 48.368 214.255 48.368C215.199 48.368 215.983 48.152 216.607 47.72C217.247 47.272 217.695 46.68 217.951 45.944H220.303C219.951 47.208 219.247 48.24 218.191 49.04C217.135 49.824 215.823 50.216 214.255 50.216C213.007 50.216 211.887 49.936 210.895 49.376C209.919 48.816 209.151 48.024 208.591 47C208.031 45.96 207.751 44.76 207.751 43.4C207.751 42.04 208.023 40.848 208.567 39.824C209.111 38.8 209.871 38.016 210.847 37.472C211.839 36.912 212.975 36.632 214.255 36.632C215.503 36.632 216.607 36.904 217.567 37.448C218.527 37.992 219.263 38.744 219.775 39.704C220.303 40.648 220.567 41.72 220.567 42.92ZM218.311 42.464C218.311 41.632 218.127 40.92 217.759 40.328C217.391 39.72 216.887 39.264 216.247 38.96C215.623 38.64 214.927 38.48 214.159 38.48C213.055 38.48 212.111 38.832 211.327 39.536C210.559 40.24 210.119 41.216 210.007 42.464H218.311Z" fill="white"/>
<defs>
<linearGradient id="paint0_linear_9_2" x1="47" y1="16" x2="47" y2="76" gradientUnits="userSpaceOnUse">
<stop stop-color="#1857B7"/>
<stop offset="1" stop-color="#BC3A80"/>
</linearGradient>
<linearGradient id="paint1_linear_9_2" x1="46.5" y1="27" x2="46.5" y2="59" gradientUnits="userSpaceOnUse">
<stop stop-color="#1857B7"/>
<stop offset="1" stop-color="#BC3A80"/>
</linearGradient>
</defs>
</svg>
