<svg width="30" height="19" viewBox="0 0 30 19" fill="none" xmlns="http://www.w3.org/2000/svg">
<path d="M0 2.11966C0 1.47957 0.629606 0.960663 1.40625 0.960663H28.5938C29.3704 0.960663 30 1.47957 30 2.11966C30 2.75976 29.3704 3.27866 28.5938 3.27866H1.40625C0.629606 3.27866 0 2.75976 0 2.11966ZM0 9.84633C0 9.20624 0.629606 8.68733 1.40625 8.68733H28.5938C29.3704 8.68733 30 9.20624 30 9.84633C30 10.4864 29.3704 11.0053 28.5938 11.0053H1.40625C0.629606 11.0053 0 10.4864 0 9.84633ZM1.40625 16.414C0.629606 16.414 0 16.9329 0 17.573C0 18.2131 0.629606 18.732 1.40625 18.732H28.5938C29.3704 18.732 30 18.2131 30 17.573C30 16.9329 29.3704 16.414 28.5938 16.414H1.40625Z" fill="white"/>
</svg>
